# xmcd
#
# Track frame offsets:
#	150
#	25293
#	42892
#	59877
#	101624
#	130820
#	153090
#	176618
#	194336
#
# Disc length: 2750 seconds
#
# Revision: 1
# Processed by: cddbd v1.5.1PL2 Copyright (c) Steve Scherf et al.
# Submitted via: CDmax 2.0
#
DISCID=770abc09
DTITLE=Expresso Blues Band - EXPRESSO BLUES
DYEAR=2002
DGENRE=Blues
TTITLE0=Home in Maxwell Street
TTITLE1=On a star with the blues
TTITLE2=Expresso blues
TTITLE3=Your lost king
TTITLE4=That's the band
TTITLE5=Messin' with the kid
TTITLE6=Song for Helen
TTITLE7=She's squeezing my heart
TTITLE8=Lady Madonna
EXTD=
EXTT0=
EXTT1=
EXTT2=
EXTT3=
EXTT4=
EXTT5=
EXTT6=
EXTT7=
EXTT8=
PLAYORDER=
